<svg width="30" height="31" viewBox="0 0 30 31" fill="none" xmlns="http://www.w3.org/2000/svg">
<g filter="url(#filter0_d_1_6427)">
<path d="M24.6841 19.3869C24.3211 20.2254 23.8915 20.9972 23.3938 21.7068C22.7153 22.6742 22.1597 23.3438 21.7316 23.7157C21.0679 24.326 20.3568 24.6386 19.5954 24.6564C19.0487 24.6564 18.3895 24.5008 17.6221 24.1853C16.8522 23.8712 16.1446 23.7156 15.4977 23.7156C14.8192 23.7156 14.0915 23.8712 13.3132 24.1853C12.5336 24.5008 11.9057 24.6653 11.4255 24.6815C10.6953 24.7127 9.9675 24.3912 9.24101 23.7156C8.7773 23.3112 8.19733 22.6179 7.50252 21.6357C6.75707 20.5868 6.14421 19.3706 5.66407 17.984C5.14986 16.4863 4.89209 15.0359 4.89209 13.6318C4.89209 12.0234 5.23964 10.6362 5.93576 9.47372C6.48286 8.53997 7.21069 7.8034 8.12163 7.26269C9.03255 6.72196 10.0168 6.4464 11.0768 6.42879C11.6568 6.42879 12.4173 6.60818 13.3625 6.96077C14.305 7.31454 14.9102 7.49393 15.1755 7.49393C15.3738 7.49393 16.0461 7.28416 17.1858 6.86595C18.2636 6.47812 19.1731 6.3175 19.9183 6.38078C21.9375 6.54374 23.4545 7.33971 24.4634 8.77375C22.6575 9.86794 21.7642 11.4005 21.7819 13.3665C21.7982 14.8978 22.3538 16.1722 23.4456 17.184C23.9404 17.6536 24.493 18.0166 25.1078 18.2744C24.9745 18.661 24.8337 19.0314 24.6841 19.3869V19.3869ZM20.0531 1.16374C20.0531 2.364 19.6146 3.4847 18.7406 4.52201C17.6858 5.75516 16.41 6.46772 15.0265 6.35529C15.0079 6.20439 14.9986 6.0525 14.9986 5.90047C14.9986 4.74822 15.5002 3.51506 16.391 2.50681C16.8357 1.9963 17.4014 1.57183 18.0873 1.23322C18.7717 0.899659 19.4191 0.715191 20.0279 0.683594C20.0457 0.844046 20.0531 1.00452 20.0531 1.16372V1.16374Z" fill="black"/>
</g>
<defs>
<filter id="filter0_d_1_6427" x="0.89209" y="0.683594" width="28.2156" height="32" filterUnits="userSpaceOnUse" color-interpolation-filters="sRGB">
<feFlood flood-opacity="0" result="BackgroundImageFix"/>
<feColorMatrix in="SourceAlpha" type="matrix" values="0 0 0 0 0 0 0 0 0 0 0 0 0 0 0 0 0 0 127 0" result="hardAlpha"/>
<feOffset dy="4"/>
<feGaussianBlur stdDeviation="2"/>
<feComposite in2="hardAlpha" operator="out"/>
<feColorMatrix type="matrix" values="0 0 0 0 0 0 0 0 0 0 0 0 0 0 0 0 0 0 0.25 0"/>
<feBlend mode="normal" in2="BackgroundImageFix" result="effect1_dropShadow_1_6427"/>
<feBlend mode="normal" in="SourceGraphic" in2="effect1_dropShadow_1_6427" result="shape"/>
</filter>
</defs>
</svg>
